<?xml version="1.0" standalone="yes"?>
<svg xmlns="http://www.w3.org/2000/svg" width="338" height="391">
<path style="fill:#feffff; stroke:none;" d="M0 0L0 391L338 391L338 0L0 0z"/>
<path style="fill:#030d1b; stroke:none;" d="M5 2L5 95C17.537 91.0327 29.5741 81.777 41 75.2809C64.6767 61.8195 88.3467 48.3507 112 34.8495C128.629 25.358 152.584 16.6007 166 3L167 3C181.567 18.0232 207.862 27.8976 226 38.4244C248.704 51.6014 271.446 64.7686 294 78.2006C306.177 85.4528 319.48 95.7215 333 100L333 2L5 2z"/>
<path style="fill:#125f70; stroke:none;" d="M166 3L167 4L166 3z"/>
<path style="fill:#1f9eaf; stroke:none;" d="M165 4L166 5L165 4z"/>
<path style="fill:#2be3f5; stroke:none;" d="M166 5.06714C161.93 5.29559 157.437 9.02481 154 11L127 26.4213C97.7081 43.2144 68.2902 59.7866 39 76.5787C29.9833 81.748 10.9506 88.1385 5.02778 96.6373C2.78613 99.8539 4 106.27 4 110L4 142C4 177.056 3 211.947 3 247C3 257.996 -1.04685 278.68 3.60339 288.61C6.53266 294.866 21.1366 300.021 27 303.424C48.6996 316.018 70.4159 328.606 92 341.397C110.583 352.409 129.374 363.072 148 374.011C153.663 377.337 163.25 385.714 170 385.385C181.191 384.84 197.334 370.963 207 365.421C235.957 348.82 265.012 332.396 294 315.85L321 300.421C324.34 298.507 329.77 296.566 331.397 292.79C335.089 284.22 332 268.319 332 259L332 180C332 161.025 333 142.035 333 123C333 117.375 335.105 106.378 331.972 101.529C327.585 94.737 313.89 90.036 307 85.9892C286.032 73.6745 264.892 61.6428 244 49.2006C225.42 38.1356 206.703 27.2793 188 16.4244C182.412 13.1813 172.639 4.69449 166 5.06714z"/>
<path style="fill:#1f9eaf; stroke:none;" d="M167 4L168 5L167 4z"/>
<path style="fill:#125f70; stroke:none;" d="M163 5L164 6L163 5M169 5L170 6L169 5M161 6L162 7L161 6z"/>
<path style="fill:#1f9eaf; stroke:none;" d="M170 6L171 7L170 6z"/>
<path style="fill:#125f70; stroke:none;" d="M171 6L172 7L171 6M159 7L160 8L159 7z"/>
<path style="fill:#1f9eaf; stroke:none;" d="M160 7L161 8L160 7M172 7L173 8L172 7M158 8L159 9L158 8z"/>
<path style="fill:#125f70; stroke:none;" d="M174 8L175 9L174 8M156 9L157 10L156 9M176 9L177 10L176 9M154 10L155 11L154 10z"/>
<path style="fill:#1f9eaf; stroke:none;" d="M177 10L178 11L177 10z"/>
<path style="fill:#125f70; stroke:none;" d="M178 10L179 11L178 10M152 11L153 12L152 11z"/>
<path style="fill:#1f9eaf; stroke:none;" d="M153 11L154 12L153 11M179 11L180 12L179 11M151 12L152 13L151 12z"/>
<path style="fill:#125f70; stroke:none;" d="M181 12L182 13L181 12M149 13L150 14L149 13z"/>
<path style="fill:#1f9eaf; stroke:none;" d="M182 13L183 14L182 13z"/>
<path style="fill:#125f70; stroke:none;" d="M183 13L184 14L183 13M147 14L148 15L147 14z"/>
<path style="fill:#1f9eaf; stroke:none;" d="M184 14L185 15L184 14z"/>
<path style="fill:#125f70; stroke:none;" d="M145 15L146 16L145 15z"/>
<path style="fill:#1f9eaf; stroke:none;" d="M146 15L147 16L146 15z"/>
<path style="fill:#125f70; stroke:none;" d="M186 15L187 16L186 15z"/>
<path style="fill:#1f9eaf; stroke:none;" d="M144 16L145 17L144 16z"/>
<path style="fill:#125f70; stroke:none;" d="M188 16L189 17L188 16M142 17L143 18L142 17z"/>
<path style="fill:#1f9eaf; stroke:none;" d="M189 17L190 18L189 17z"/>
<path style="fill:#125f70; stroke:none;" d="M190 17L191 18L190 17M140 18L141 19L140 18z"/>
<path style="fill:#1f9eaf; stroke:none;" d="M191 18L192 19L191 18z"/>
<path style="fill:#125f70; stroke:none;" d="M138 19L139 20L138 19z"/>
<path style="fill:#1f9eaf; stroke:none;" d="M139 19L140 20L139 19z"/>
<path style="fill:#125f70; stroke:none;" d="M193 19L194 20L193 19z"/>
<path style="fill:#1f9eaf; stroke:none;" d="M137 20L138 21L137 20M194 20L195 21L194 20z"/>
<path style="fill:#125f70; stroke:none;" d="M195 20L196 21L195 20M135 21L136 22L135 21z"/>
<path style="fill:#1f9eaf; stroke:none;" d="M196 21L197 22L196 21z"/>
<path style="fill:#125f70; stroke:none;" d="M133 22L134 23L133 22M198 22L199 23L198 22M131 23L132 24L131 23z"/>
<path style="fill:#1f9eaf; stroke:none;" d="M132 23L133 24L132 23z"/>
<path style="fill:#125f70; stroke:none;" d="M200 23L201 24L200 23z"/>
<path style="fill:#1f9eaf; stroke:none;" d="M130 24L131 25L130 24z"/>
<path style="fill:#125f70; stroke:none;" d="M165 24L166 25L165 24z"/>
<path style="fill:#030d1b; stroke:none;" d="M166 25.0671C156.367 25.6048 142.347 37.6357 134 42.4213C108.041 57.3037 81.9876 72.0159 56 86.8495L32 100.579C29.0017 102.298 24.1429 104.039 22.6034 107.379C19.4379 114.247 22.2896 126.487 21.9606 134C20.8676 158.961 21 183.967 21 209L21 260C21 265.191 19.1248 274.977 22.0278 279.471C26.2466 286.003 39.3601 290.571 46 294.424C65.6929 305.854 85.2532 317.514 105 328.85C120.399 337.691 135.574 346.925 151 355.719C156.152 358.656 163.856 365.483 170 365.335C179.677 365.102 193.67 353.017 202 348.281L281 303.281C288.988 298.739 309.675 291.467 313.411 282.895C317.306 273.96 315 260.526 315 251L315 182L315 132C315 126.406 316.945 116.24 313.972 111.329C310.105 104.94 297.375 100.353 291 96.7191C272.226 86.0163 253.635 74.9341 235 63.9892C218.695 54.4126 202.268 45.0367 186 35.3966C180.92 32.3863 172.069 24.7284 166 25.0671z"/>
<path style="fill:#125f70; stroke:none;" d="M167 24L168 25L167 24z"/>
<path style="fill:#1f9eaf; stroke:none;" d="M201 24L202 25L201 24z"/>
<path style="fill:#125f70; stroke:none;" d="M202 24L203 25L202 24M128 25L129 26L128 25M163 25L164 26L163 25z"/>
<path style="fill:#1f9eaf; stroke:none;" d="M169 25L170 26L169 25M203 25L204 26L203 25z"/>
<path style="fill:#125f70; stroke:none;" d="M126 26L127 27L126 26z"/>
<path style="fill:#1f9eaf; stroke:none;" d="M161 26L162 27L161 26z"/>
<path style="fill:#125f70; stroke:none;" d="M170 26L171 27L170 26z"/>
<path style="fill:#1f9eaf; stroke:none;" d="M171 26L172 27L171 26z"/>
<path style="fill:#125f70; stroke:none;" d="M205 26L206 27L205 26M124 27L125 28L124 27z"/>
<path style="fill:#1f9eaf; stroke:none;" d="M125 27L126 28L125 27M159 27L160 28L159 27z"/>
<path style="fill:#125f70; stroke:none;" d="M160 27L161 28L160 27M172 27L173 28L172 27z"/>
<path style="fill:#1f9eaf; stroke:none;" d="M206 27L207 28L206 27z"/>
<path style="fill:#125f70; stroke:none;" d="M207 27L208 28L207 27z"/>
<path style="fill:#1f9eaf; stroke:none;" d="M123 28L124 29L123 28z"/>
<path style="fill:#125f70; stroke:none;" d="M158 28L159 29L158 28z"/>
<path style="fill:#1f9eaf; stroke:none;" d="M174 28L175 29L174 28M208 28L209 29L208 28M121 29L122 30L121 29z"/>
<path style="fill:#125f70; stroke:none;" d="M156 29L157 30L156 29M175 29L176 30L175 29z"/>
<path style="fill:#1f9eaf; stroke:none;" d="M176 29L177 30L176 29z"/>
<path style="fill:#125f70; stroke:none;" d="M210 29L211 30L210 29M119 30L120 31L119 30z"/>
<path style="fill:#1f9eaf; stroke:none;" d="M154 30L155 31L154 30z"/>
<path style="fill:#125f70; stroke:none;" d="M177 30L178 31L177 30M212 30L213 31L212 30M117 31L118 32L117 31z"/>
<path style="fill:#1f9eaf; stroke:none;" d="M118 31L119 32L118 31M152 31L153 32L152 31z"/>
<path style="fill:#125f70; stroke:none;" d="M153 31L154 32L153 31M179 31L180 32L179 31z"/>
<path style="fill:#1f9eaf; stroke:none;" d="M213 31L214 32L213 31z"/>
<path style="fill:#125f70; stroke:none;" d="M214 31L215 32L214 31z"/>
<path style="fill:#1f9eaf; stroke:none;" d="M116 32L117 33L116 32z"/>
<path style="fill:#125f70; stroke:none;" d="M151 32L152 33L151 32z"/>
<path style="fill:#1f9eaf; stroke:none;" d="M181 32L182 33L181 32M215 32L216 33L215 32M114 33L115 34L114 33z"/>
<path style="fill:#125f70; stroke:none;" d="M149 33L150 34L149 33M182 33L183 34L182 33z"/>
<path style="fill:#1f9eaf; stroke:none;" d="M183 33L184 34L183 33z"/>
<path style="fill:#125f70; stroke:none;" d="M217 33L218 34L217 33M112 34L113 35L112 34z"/>
<path style="fill:#1f9eaf; stroke:none;" d="M147 34L148 35L147 34z"/>
<path style="fill:#125f70; stroke:none;" d="M184 34L185 35L184 34z"/>
<path style="fill:#1f9eaf; stroke:none;" d="M218 34L219 35L218 34z"/>
<path style="fill:#125f70; stroke:none;" d="M219 34L220 35L219 34M110 35L111 36L110 35z"/>
<path style="fill:#1f9eaf; stroke:none;" d="M111 35L112 36L111 35M145 35L146 36L145 35z"/>
<path style="fill:#125f70; stroke:none;" d="M146 35L147 36L146 35z"/>
<path style="fill:#1f9eaf; stroke:none;" d="M186 35L187 36L186 35M220 35L221 36L220 35M109 36L110 37L109 36z"/>
<path style="fill:#125f70; stroke:none;" d="M144 36L145 37L144 36M187 36L188 37L187 36z"/>
<path style="fill:#1f9eaf; stroke:none;" d="M188 36L189 37L188 36z"/>
<path style="fill:#125f70; stroke:none;" d="M222 36L223 37L222 36z"/>
<path style="fill:#1f9eaf; stroke:none;" d="M107 37L108 38L107 37z"/>
<path style="fill:#125f70; stroke:none;" d="M142 37L143 38L142 37M189 37L190 38L189 37M224 37L225 38L224 37M105 38L106 39L105 38z"/>
<path style="fill:#1f9eaf; stroke:none;" d="M140 38L141 39L140 38z"/>
<path style="fill:#125f70; stroke:none;" d="M191 38L192 39L191 38z"/>
<path style="fill:#1f9eaf; stroke:none;" d="M225 38L226 39L225 38z"/>
<path style="fill:#125f70; stroke:none;" d="M226 38L227 39L226 38M103 39L104 40L103 39z"/>
<path style="fill:#1f9eaf; stroke:none;" d="M104 39L105 40L104 39M138 39L139 40L138 39z"/>
<path style="fill:#125f70; stroke:none;" d="M139 39L140 40L139 39z"/>
<path style="fill:#1f9eaf; stroke:none;" d="M193 39L194 40L193 39M227 39L228 40L227 39M102 40L103 41L102 40z"/>
<path style="fill:#125f70; stroke:none;" d="M137 40L138 41L137 40M194 40L195 41L194 40z"/>
<path style="fill:#1f9eaf; stroke:none;" d="M195 40L196 41L195 40z"/>
<path style="fill:#125f70; stroke:none;" d="M229 40L230 41L229 40z"/>
<path style="fill:#1f9eaf; stroke:none;" d="M100 41L101 42L100 41z"/>
<path style="fill:#125f70; stroke:none;" d="M135 41L136 42L135 41M196 41L197 42L196 41z"/>
<path style="fill:#1f9eaf; stroke:none;" d="M230 41L231 42L230 41z"/>
<path style="fill:#125f70; stroke:none;" d="M231 41L232 42L231 41M98 42L99 43L98 42z"/>
<path style="fill:#1f9eaf; stroke:none;" d="M133 42L134 43L133 42M198 42L199 43L198 42M232 42L233 43L232 42z"/>
<path style="fill:#125f70; stroke:none;" d="M96 43L97 44L96 43z"/>
<path style="fill:#1f9eaf; stroke:none;" d="M97 43L98 44L97 43M131 43L132 44L131 43z"/>
<path style="fill:#125f70; stroke:none;" d="M132 43L133 44L132 43M199 43L200 44L199 43z"/>
<path style="fill:#1f9eaf; stroke:none;" d="M200 43L201 44L200 43z"/>
<path style="fill:#125f70; stroke:none;" d="M234 43L235 44L234 43z"/>
<path style="fill:#1f9eaf; stroke:none;" d="M95 44L96 45L95 44z"/>
<path style="fill:#125f70; stroke:none;" d="M130 44L131 45L130 44M201 44L202 45L201 44z"/>
<path style="fill:#1f9eaf; stroke:none;" d="M235 44L236 45L235 44z"/>
<path style="fill:#125f70; stroke:none;" d="M236 44L237 45L236 44z"/>
<path style="fill:#1f9eaf; stroke:none;" d="M93 45L94 46L93 45z"/>
<path style="fill:#125f70; stroke:none;" d="M128 45L129 46L128 45M203 45L204 46L203 45z"/>
<path style="fill:#1f9eaf; stroke:none;" d="M237 45L238 46L237 45z"/>
<path style="fill:#125f70; stroke:none;" d="M91 46L92 47L91 46z"/>
<path style="fill:#1f9eaf; stroke:none;" d="M126 46L127 47L126 46M205 46L206 47L205 46M239 46L240 47L239 46z"/>
<path style="fill:#125f70; stroke:none;" d="M89 47L90 48L89 47z"/>
<path style="fill:#1f9eaf; stroke:none;" d="M90 47L91 48L90 47M124 47L125 48L124 47z"/>
<path style="fill:#125f70; stroke:none;" d="M125 47L126 48L125 47M206 47L207 48L206 47z"/>
<path style="fill:#1f9eaf; stroke:none;" d="M207 47L208 48L207 47z"/>
<path style="fill:#125f70; stroke:none;" d="M241 47L242 48L241 47z"/>
<path style="fill:#1f9eaf; stroke:none;" d="M88 48L89 49L88 48M122 48L123 49L122 48z"/>
<path style="fill:#125f70; stroke:none;" d="M123 48L124 49L123 48M208 48L209 49L208 48z"/>
<path style="fill:#1f9eaf; stroke:none;" d="M242 48L243 49L242 48z"/>
<path style="fill:#125f70; stroke:none;" d="M243 48L244 49L243 48z"/>
<path style="fill:#1f9eaf; stroke:none;" d="M86 49L87 50L86 49z"/>
<path style="fill:#125f70; stroke:none;" d="M121 49L122 50L121 49z"/>
<path style="fill:#1f9eaf; stroke:none;" d="M210 49L211 50L210 49M244 49L245 50L244 49z"/>
<path style="fill:#125f70; stroke:none;" d="M84 50L85 51L84 50z"/>
<path style="fill:#1f9eaf; stroke:none;" d="M119 50L120 51L119 50z"/>
<path style="fill:#125f70; stroke:none;" d="M211 50L212 51L211 50z"/>
<path style="fill:#1f9eaf; stroke:none;" d="M212 50L213 51L212 50z"/>
<path style="fill:#125f70; stroke:none;" d="M246 50L247 51L246 50M82 51L83 52L82 51z"/>
<path style="fill:#1f9eaf; stroke:none;" d="M83 51L84 52L83 51M117 51L118 52L117 51z"/>
<path style="fill:#125f70; stroke:none;" d="M118 51L119 52L118 51M213 51L214 52L213 51z"/>
<path style="fill:#1f9eaf; stroke:none;" d="M247 51L248 52L247 51z"/>
<path style="fill:#125f70; stroke:none;" d="M248 51L249 52L248 51M80 52L81 53L80 52z"/>
<path style="fill:#1f9eaf; stroke:none;" d="M81 52L82 53L81 52M115 52L116 53L115 52z"/>
<path style="fill:#125f70; stroke:none;" d="M116 52L117 53L116 52z"/>
<path style="fill:#1f9eaf; stroke:none;" d="M215 52L216 53L215 52M249 52L250 53L249 52M79 53L80 54L79 53z"/>
<path style="fill:#125f70; stroke:none;" d="M114 53L115 54L114 53z"/>
<path style="fill:#1f9eaf; stroke:none;" d="M217 53L218 54L217 53M251 53L252 54L251 53z"/>
<path style="fill:#125f70; stroke:none;" d="M77 54L78 55L77 54z"/>
<path style="fill:#1f9eaf; stroke:none;" d="M112 54L113 55L112 54z"/>
<path style="fill:#125f70; stroke:none;" d="M218 54L219 55L218 54z"/>
<path style="fill:#1f9eaf; stroke:none;" d="M219 54L220 55L219 54z"/>
<path style="fill:#125f70; stroke:none;" d="M253 54L254 55L253 54M75 55L76 56L75 55z"/>
<path style="fill:#1f9eaf; stroke:none;" d="M76 55L77 56L76 55M110 55L111 56L110 55z"/>
<path style="fill:#125f70; stroke:none;" d="M111 55L112 56L111 55M220 55L221 56L220 55z"/>
<path style="fill:#1f9eaf; stroke:none;" d="M254 55L255 56L254 55z"/>
<path style="fill:#125f70; stroke:none;" d="M255 55L256 56L255 55M73 56L74 57L73 56z"/>
<path style="fill:#1f9eaf; stroke:none;" d="M74 56L75 57L74 56M108 56L109 57L108 56z"/>
<path style="fill:#125f70; stroke:none;" d="M109 56L110 57L109 56z"/>
<path style="fill:#1f9eaf; stroke:none;" d="M222 56L223 57L222 56M256 56L257 57L256 56M72 57L73 58L72 57z"/>
<path style="fill:#125f70; stroke:none;" d="M107 57L108 58L107 57M223 57L224 58L223 57z"/>
<path style="fill:#1f9eaf; stroke:none;" d="M224 57L225 58L224 57z"/>
<path style="fill:#125f70; stroke:none;" d="M258 57L259 58L258 57M70 58L71 59L70 58z"/>
<path style="fill:#1f9eaf; stroke:none;" d="M105 58L106 59L105 58z"/>
<path style="fill:#125f70; stroke:none;" d="M225 58L226 59L225 58z"/>
<path style="fill:#1f9eaf; stroke:none;" d="M259 58L260 59L259 58z"/>
<path style="fill:#125f70; stroke:none;" d="M260 58L261 59L260 58M68 59L69 60L68 59z"/>
<path style="fill:#1f9eaf; stroke:none;" d="M69 59L70 60L69 59M103 59L104 60L103 59z"/>
<path style="fill:#125f70; stroke:none;" d="M104 59L105 60L104 59z"/>
<path style="fill:#1f9eaf; stroke:none;" d="M227 59L228 60L227 59M261 59L262 60L261 59z"/>
<path style="fill:#125f70; stroke:none;" d="M66 60L67 61L66 60z"/>
<path style="fill:#1f9eaf; stroke:none;" d="M67 60L68 61L67 60M101 60L102 61L101 60z"/>
<path style="fill:#125f70; stroke:none;" d="M102 60L103 61L102 60z"/>
<path style="fill:#1f9eaf; stroke:none;" d="M229 60L230 61L229 60M263 60L264 61L263 60M65 61L66 62L65 61z"/>
<path style="fill:#125f70; stroke:none;" d="M100 61L101 62L100 61M230 61L231 62L230 61z"/>
<path style="fill:#1f9eaf; stroke:none;" d="M231 61L232 62L231 61z"/>
<path style="fill:#125f70; stroke:none;" d="M265 61L266 62L265 61M63 62L64 63L63 62z"/>
<path style="fill:#1f9eaf; stroke:none;" d="M98 62L99 63L98 62z"/>
<path style="fill:#125f70; stroke:none;" d="M232 62L233 63L232 62z"/>
<path style="fill:#1f9eaf; stroke:none;" d="M266 62L267 63L266 62z"/>
<path style="fill:#125f70; stroke:none;" d="M267 62L268 63L267 62M61 63L62 64L61 63z"/>
<path style="fill:#1f9eaf; stroke:none;" d="M62 63L63 64L62 63M96 63L97 64L96 63M234 63L235 64L234 63M268 63L269 64L268 63z"/>
<path style="fill:#125f70; stroke:none;" d="M59 64L60 65L59 64z"/>
<path style="fill:#1f9eaf; stroke:none;" d="M60 64L61 65L60 64M94 64L95 65L94 64z"/>
<path style="fill:#125f70; stroke:none;" d="M95 64L96 65L95 64M235 64L236 65L235 64z"/>
<path style="fill:#1f9eaf; stroke:none;" d="M236 64L237 65L236 64z"/>
<path style="fill:#125f70; stroke:none;" d="M270 64L271 65L270 64z"/>
<path style="fill:#1f9eaf; stroke:none;" d="M58 65L59 66L58 65z"/>
<path style="fill:#125f70; stroke:none;" d="M93 65L94 66L93 65M237 65L238 66L237 65z"/>
<path style="fill:#1f9eaf; stroke:none;" d="M271 65L272 66L271 65z"/>
<path style="fill:#125f70; stroke:none;" d="M272 65L273 66L272 65M56 66L57 67L56 66z"/>
<path style="fill:#1f9eaf; stroke:none;" d="M91 66L92 67L91 66M239 66L240 67L239 66M273 66L274 67L273 66z"/>
<path style="fill:#125f70; stroke:none;" d="M54 67L55 68L54 67z"/>
<path style="fill:#1f9eaf; stroke:none;" d="M89 67L90 68L89 67M241 67L242 68L241 67M275 67L276 68L275 67z"/>
<path style="fill:#125f70; stroke:none;" d="M52 68L53 69L52 68z"/>
<path style="fill:#1f9eaf; stroke:none;" d="M53 68L54 69L53 68M87 68L88 69L87 68z"/>
<path style="fill:#125f70; stroke:none;" d="M88 68L89 69L88 68M242 68L243 69L242 68z"/>
<path style="fill:#1f9eaf; stroke:none;" d="M243 68L244 69L243 68z"/>
<path style="fill:#125f70; stroke:none;" d="M277 68L278 69L277 68z"/>
<path style="fill:#1f9eaf; stroke:none;" d="M51 69L52 70L51 69z"/>
<path style="fill:#125f70; stroke:none;" d="M86 69L87 70L86 69M244 69L245 70L244 69z"/>
<path style="fill:#1f9eaf; stroke:none;" d="M278 69L279 70L278 69z"/>
<path style="fill:#125f70; stroke:none;" d="M279 69L280 70L279 69M49 70L50 71L49 70z"/>
<path style="fill:#1f9eaf; stroke:none;" d="M84 70L85 71L84 70M246 70L247 71L246 70M280 70L281 71L280 70z"/>
<path style="fill:#125f70; stroke:none;" d="M47 71L48 72L47 71z"/>
<path style="fill:#1f9eaf; stroke:none;" d="M82 71L83 72L82 71z"/>
<path style="fill:#125f70; stroke:none;" d="M247 71L248 72L247 71z"/>
<path style="fill:#1f9eaf; stroke:none;" d="M248 71L249 72L248 71z"/>
<path style="fill:#125f70; stroke:none;" d="M282 71L283 72L282 71M45 72L46 73L45 72z"/>
<path style="fill:#1f9eaf; stroke:none;" d="M46 72L47 73L46 72M80 72L81 73L80 72z"/>
<path style="fill:#125f70; stroke:none;" d="M81 72L82 73L81 72M249 72L250 73L249 72z"/>
<path style="fill:#1f9eaf; stroke:none;" d="M283 72L284 73L283 72z"/>
<path style="fill:#125f70; stroke:none;" d="M284 72L285 73L284 72z"/>
<path style="fill:#1f9eaf; stroke:none;" d="M44 73L45 74L44 73z"/>
<path style="fill:#125f70; stroke:none;" d="M79 73L80 74L79 73z"/>
<path style="fill:#1f9eaf; stroke:none;" d="M251 73L252 74L251 73M285 73L286 74L285 73z"/>
<path style="fill:#125f70; stroke:none;" d="M42 74L43 75L42 74z"/>
<path style="fill:#1f9eaf; stroke:none;" d="M77 74L78 75L77 74M253 74L254 75L253 74M287 74L288 75L287 74z"/>
<path style="fill:#125f70; stroke:none;" d="M40 75L41 76L40 75z"/>
<path style="fill:#1f9eaf; stroke:none;" d="M75 75L76 76L75 75z"/>
<path style="fill:#125f70; stroke:none;" d="M254 75L255 76L254 75z"/>
<path style="fill:#1f9eaf; stroke:none;" d="M255 75L256 76L255 75z"/>
<path style="fill:#125f70; stroke:none;" d="M289 75L290 76L289 75M38 76L39 77L38 76z"/>
<path style="fill:#1f9eaf; stroke:none;" d="M39 76L40 77L39 76M73 76L74 77L73 76z"/>
<path style="fill:#125f70; stroke:none;" d="M74 76L75 77L74 76M256 76L257 77L256 76z"/>
<path style="fill:#1f9eaf; stroke:none;" d="M290 76L291 77L290 76z"/>
<path style="fill:#125f70; stroke:none;" d="M291 76L292 77L291 76z"/>
<path style="fill:#1f9eaf; stroke:none;" d="M37 77L38 78L37 77z"/>
<path style="fill:#125f70; stroke:none;" d="M72 77L73 78L72 77z"/>
<path style="fill:#1f9eaf; stroke:none;" d="M258 77L259 78L258 77M292 77L293 78L292 77z"/>
<path style="fill:#125f70; stroke:none;" d="M35 78L36 79L35 78z"/>
<path style="fill:#1f9eaf; stroke:none;" d="M70 78L71 79L70 78z"/>
<path style="fill:#125f70; stroke:none;" d="M259 78L260 79L259 78z"/>
<path style="fill:#1f9eaf; stroke:none;" d="M260 78L261 79L260 78z"/>
<path style="fill:#125f70; stroke:none;" d="M294 78L295 79L294 78M33 79L34 80L33 79z"/>
<path style="fill:#1f9eaf; stroke:none;" d="M68 79L69 80L68 79z"/>
<path style="fill:#125f70; stroke:none;" d="M261 79L262 80L261 79z"/>
<path style="fill:#1f9eaf; stroke:none;" d="M295 79L296 80L295 79z"/>
<path style="fill:#125f70; stroke:none;" d="M296 79L297 80L296 79M31 80L32 81L31 80z"/>
<path style="fill:#1f9eaf; stroke:none;" d="M32 80L33 81L32 80M66 80L67 81L66 80z"/>
<path style="fill:#125f70; stroke:none;" d="M67 80L68 81L67 80z"/>
<path style="fill:#1f9eaf; stroke:none;" d="M263 80L264 81L263 80M297 80L298 81L297 80M30 81L31 82L30 81z"/>
<path style="fill:#125f70; stroke:none;" d="M65 81L66 82L65 81z"/>
<path style="fill:#1f9eaf; stroke:none;" d="M265 81L266 82L265 81M299 81L300 82L299 81z"/>
<path style="fill:#125f70; stroke:none;" d="M28 82L29 83L28 82M63 82L64 83L63 82M266 82L267 83L266 82z"/>
<path style="fill:#1f9eaf; stroke:none;" d="M267 82L268 83L267 82z"/>
<path style="fill:#125f70; stroke:none;" d="M301 82L302 83L301 82M26 83L27 84L26 83z"/>
<path style="fill:#1f9eaf; stroke:none;" d="M61 83L62 84L61 83z"/>
<path style="fill:#125f70; stroke:none;" d="M268 83L269 84L268 83z"/>
<path style="fill:#1f9eaf; stroke:none;" d="M302 83L303 84L302 83z"/>
<path style="fill:#125f70; stroke:none;" d="M303 83L304 84L303 83M24 84L25 85L24 84z"/>
<path style="fill:#1f9eaf; stroke:none;" d="M25 84L26 85L25 84M59 84L60 85L59 84z"/>
<path style="fill:#125f70; stroke:none;" d="M60 84L61 85L60 84z"/>
<path style="fill:#1f9eaf; stroke:none;" d="M270 84L271 85L270 84M304 84L305 85L304 84M23 85L24 86L23 85z"/>
<path style="fill:#125f70; stroke:none;" d="M58 85L59 86L58 85M271 85L272 86L271 85z"/>
<path style="fill:#1f9eaf; stroke:none;" d="M272 85L273 86L272 85z"/>
<path style="fill:#125f70; stroke:none;" d="M306 85L307 86L306 85M21 86L22 87L21 86M56 86L57 87L56 86M273 86L274 87L273 86z"/>
<path style="fill:#1f9eaf; stroke:none;" d="M307 86L308 87L307 86z"/>
<path style="fill:#125f70; stroke:none;" d="M308 86L309 87L308 86M19 87L20 88L19 87z"/>
<path style="fill:#1f9eaf; stroke:none;" d="M54 87L55 88L54 87M275 87L276 88L275 87M309 87L310 88L309 87z"/>
<path style="fill:#125f70; stroke:none;" d="M17 88L18 89L17 88z"/>
<path style="fill:#1f9eaf; stroke:none;" d="M18 88L19 89L18 88M52 88L53 89L52 88z"/>
<path style="fill:#125f70; stroke:none;" d="M53 88L54 89L53 88z"/>
<path style="fill:#1f9eaf; stroke:none;" d="M277 88L278 89L277 88z"/>
<path style="fill:#125f70; stroke:none;" d="M311 88L312 89L311 88z"/>
<path style="fill:#1f9eaf; stroke:none;" d="M16 89L17 90L16 89z"/>
<path style="fill:#125f70; stroke:none;" d="M51 89L52 90L51 89M278 89L279 90L278 89M313 89L314 90L313 89M14 90L15 91L14 90M49 90L50 91L49 90M280 90L281 91L280 90z"/>
<path style="fill:#1f9eaf; stroke:none;" d="M314 90L315 91L314 90z"/>
<path style="fill:#125f70; stroke:none;" d="M315 90L316 91L315 90M12 91L13 92L12 91z"/>
<path style="fill:#1f9eaf; stroke:none;" d="M47 91L48 92L47 91M282 91L283 92L282 91M316 91L317 92L316 91z"/>
<path style="fill:#125f70; stroke:none;" d="M10 92L11 93L10 92z"/>
<path style="fill:#1f9eaf; stroke:none;" d="M11 92L12 93L11 92M45 92L46 93L45 92z"/>
<path style="fill:#125f70; stroke:none;" d="M46 92L47 93L46 92M283 92L284 93L283 92z"/>
<path style="fill:#1f9eaf; stroke:none;" d="M284 92L285 93L284 92z"/>
<path style="fill:#125f70; stroke:none;" d="M318 92L319 93L318 92z"/>
<path style="fill:#1f9eaf; stroke:none;" d="M9 93L10 94L9 93z"/>
<path style="fill:#125f70; stroke:none;" d="M44 93L45 94L44 93M285 93L286 94L285 93z"/>
<path style="fill:#1f9eaf; stroke:none;" d="M319 93L320 94L319 93z"/>
<path style="fill:#125f70; stroke:none;" d="M320 93L321 94L320 93M7 94L8 95L7 94M42 94L43 95L42 94z"/>
<path style="fill:#1f9eaf; stroke:none;" d="M287 94L288 95L287 94M321 94L322 95L321 94z"/>
<path style="fill:#125f70; stroke:none;" d="M5 95L6 96L5 95z"/>
<path style="fill:#1f9eaf; stroke:none;" d="M40 95L41 96L40 95z"/>
<path style="fill:#125f70; stroke:none;" d="M288 95L289 96L288 95z"/>
<path style="fill:#1f9eaf; stroke:none;" d="M289 95L290 96L289 95z"/>
<path style="fill:#125f70; stroke:none;" d="M323 95L324 96L323 95z"/>
<path style="fill:#1f9eaf; stroke:none;" d="M38 96L39 97L38 96z"/>
<path style="fill:#125f70; stroke:none;" d="M39 96L40 97L39 96M290 96L291 97L290 96M325 96L326 97L325 96M37 97L38 98L37 97M292 97L293 98L292 97z"/>
<path style="fill:#1f9eaf; stroke:none;" d="M326 97L327 98L326 97z"/>
<path style="fill:#125f70; stroke:none;" d="M327 97L328 98L327 97M35 98L36 99L35 98z"/>
<path style="fill:#1f9eaf; stroke:none;" d="M294 98L295 99L294 98M328 98L329 99L328 98M33 99L34 100L33 99z"/>
<path style="fill:#125f70; stroke:none;" d="M295 99L296 100L295 99z"/>
<path style="fill:#1f9eaf; stroke:none;" d="M296 99L297 100L296 99z"/>
<path style="fill:#125f70; stroke:none;" d="M330 99L331 100L330 99z"/>
<path style="fill:#1f9eaf; stroke:none;" d="M31 100L32 101L31 100z"/>
<path style="fill:#125f70; stroke:none;" d="M32 100L33 101L32 100M297 100L298 101L297 100z"/>
<path style="fill:#1f9eaf; stroke:none;" d="M331 100L332 101L331 100z"/>
<path style="fill:#125f70; stroke:none;" d="M332 100L333 101L332 100M30 101L31 102L30 101z"/>
<path style="fill:#1f9eaf; stroke:none;" d="M299 101L300 102L299 101z"/>
<path style="fill:#125f70; stroke:none;" d="M28 102L29 103L28 102M300 102L301 103L300 102z"/>
<path style="fill:#1f9eaf; stroke:none;" d="M301 102L302 103L301 102M26 103L27 104L26 103z"/>
<path style="fill:#125f70; stroke:none;" d="M302 103L303 104L302 103z"/>
<path style="fill:#1f9eaf; stroke:none;" d="M24 104L25 105L24 104z"/>
<path style="fill:#125f70; stroke:none;" d="M25 104L26 105L25 104M304 104L305 105L304 104M23 105L24 106L23 105z"/>
<path style="fill:#1f9eaf; stroke:none;" d="M306 105L307 106L306 105M21 106L22 107L21 106z"/>
<path style="fill:#125f70; stroke:none;" d="M307 106L308 107L307 106z"/>
<path style="fill:#1f9eaf; stroke:none;" d="M308 106L309 107L308 106z"/>
<path style="fill:#125f70; stroke:none;" d="M21 107L21 139L22 139L21 107M309 107L310 108L309 107z"/>
<path style="fill:#1f9eaf; stroke:none;" d="M311 108L312 109L311 108z"/>
<path style="fill:#125f70; stroke:none;" d="M312 109L313 110L312 109z"/>
<path style="fill:#1f9eaf; stroke:none;" d="M313 109L314 110L313 109z"/>
<path style="fill:#125f70; stroke:none;" d="M314 110L315 111L314 110M315 111L315 166L316 166L316 129L315 111M95 141L95 142L131 142C121.44 137.989 105.387 141 95 141M188 141L188 142L247 142L228 141L188 141z"/>
<path style="fill:#2be3f5; stroke:none;" d="M95 142L95 254L111 254L111 207C131.47 207 139.148 219.35 148.576 236C151.334 240.871 154.249 250.044 159.213 252.972C163.453 255.473 171.219 254 176 254C167.619 236.05 155.992 216.031 142 202C163.611 192.955 173.191 160.989 149.996 146.98C134.989 137.916 111.78 142 95 142z"/>
<path style="fill:#1f9eaf; stroke:none;" d="M136.667 142.333L137.333 142.667L136.667 142.333z"/>
<path style="fill:#125f70; stroke:none;" d="M138.667 142.333L139.333 142.667L138.667 142.333z"/>
<path style="fill:#1f9eaf; stroke:none;" d="M188 142L188 254L189 254L189 176L188 142z"/>
<path style="fill:#2be3f5; stroke:none;" d="M189 142L189 254L204 254L204 205L244 205L244 191L204 191L204 156L247 156L247 142L189 142z"/>
<path style="fill:#1f9eaf; stroke:none;" d="M141 143L142 144L141 143z"/>
<path style="fill:#125f70; stroke:none;" d="M142 143L143 144L142 143z"/>
<path style="fill:#1f9eaf; stroke:none;" d="M144 144L145 145L144 144z"/>
<path style="fill:#125f70; stroke:none;" d="M145 144L146 145L145 144z"/>
<path style="fill:#1f9eaf; stroke:none;" d="M147 145L148 146L147 145z"/>
<path style="fill:#125f70; stroke:none;" d="M149 146L150 147L149 146M151 147L152 148L151 147z"/>
<path style="fill:#1f9eaf; stroke:none;" d="M152 148L153 149L152 148M153 149L154 150L153 149M154 150L155 151L154 150M156 152L157 153L156 152M157 153L158 154L157 153z"/>
<path style="fill:#125f70; stroke:none;" d="M158 154L159 155L158 154M159 155L160 156L159 155M111 156L111 157L130 157L111 156z"/>
<path style="fill:#1f9eaf; stroke:none;" d="M130 156L130 157L133 157L130 156M159 156L160 157L159 156M204 156L205 157L204 156z"/>
<path style="fill:#125f70; stroke:none;" d="M205 156L205 157L247 157C236.012 152.389 216.957 156 205 156z"/>
<path style="fill:#030d1b; stroke:none;" d="M111 157L111 193C120.058 193 131.024 194.273 138.985 189.03C149.068 182.389 150.126 165.555 138.996 159.417C131.085 155.055 119.727 157 111 157z"/>
<path style="fill:#125f70; stroke:none;" d="M134.667 157.333L135.333 157.667L134.667 157.333z"/>
<path style="fill:#1f9eaf; stroke:none;" d="M136 157L137 158L136 157z"/>
<path style="fill:#125f70; stroke:none;" d="M160 157L161 158L160 157M204 157L204 191L205 191L204 157M137 158L138 159L137 158z"/>
<path style="fill:#1f9eaf; stroke:none;" d="M138 158L139 159L138 158M160 158L161 159L160 158z"/>
<path style="fill:#125f70; stroke:none;" d="M139 159L140 160L139 159z"/>
<path style="fill:#1f9eaf; stroke:none;" d="M140 159L141 160L140 159z"/>
<path style="fill:#125f70; stroke:none;" d="M161 159L162 160L161 159M141 160L142 161L141 160z"/>
<path style="fill:#1f9eaf; stroke:none;" d="M161 160L162 161L161 160z"/>
<path style="fill:#125f70; stroke:none;" d="M142 161L143 162L142 161M143 162L144 163L143 162M162 162L163 163L162 162z"/>
<path style="fill:#1f9eaf; stroke:none;" d="M144 163L145 164L144 163M162 163L163 164L162 163z"/>
<path style="fill:#125f70; stroke:none;" d="M145 165L146 166L145 165z"/>
<path style="fill:#1f9eaf; stroke:none;" d="M332 165L332 217L333 217L333 182L332 165z"/>
<path style="fill:#125f70; stroke:none;" d="M163.333 166.667L163.667 167.333L163.333 166.667z"/>
<path style="fill:#1f9eaf; stroke:none;" d="M315 166L315 218L316 218L316 183L315 166M146 167L147 168L146 167z"/>
<path style="fill:#125f70; stroke:none;" d="M146 168L147 169L146 168z"/>
<path style="fill:#1f9eaf; stroke:none;" d="M163 168L163 177L164 177L163 168M147 173L148 174L147 173z"/>
<path style="fill:#125f70; stroke:none;" d="M163.333 177.667L163.667 178.333L163.333 177.667M146 178L147 179L146 178z"/>
<path style="fill:#1f9eaf; stroke:none;" d="M146 179L147 180L146 179M162.333 180.667L162.667 181.333L162.333 180.667M145.333 181.667L145.667 182.333L145.333 181.667z"/>
<path style="fill:#125f70; stroke:none;" d="M162 182L163 183L162 182M144 183L145 184L144 183M161 184L162 185L161 184z"/>
<path style="fill:#1f9eaf; stroke:none;" d="M143 185L144 186L143 185z"/>
<path style="fill:#125f70; stroke:none;" d="M142 186L143 187L142 186M160 186L161 187L160 186M141 187L142 188L141 187z"/>
<path style="fill:#1f9eaf; stroke:none;" d="M140 188L141 189L140 188z"/>
<path style="fill:#125f70; stroke:none;" d="M159 188L160 189L159 188M138 189L139 190L138 189z"/>
<path style="fill:#1f9eaf; stroke:none;" d="M139 189L140 190L139 189M158 189L159 190L158 189z"/>
<path style="fill:#125f70; stroke:none;" d="M136 190L137 191L136 190z"/>
<path style="fill:#1f9eaf; stroke:none;" d="M137 190L138 191L137 190z"/>
<path style="fill:#125f70; stroke:none;" d="M134 191L135 192L134 191z"/>
<path style="fill:#1f9eaf; stroke:none;" d="M135 191L136 192L135 191z"/>
<path style="fill:#125f70; stroke:none;" d="M157 191L158 192L157 191M128 192L128 193L131 193L128 192z"/>
<path style="fill:#1f9eaf; stroke:none;" d="M131.667 192.333L132.333 192.667L131.667 192.333M156 192L157 193L156 192M155 193L156 194L155 193M154 194L155 195L154 194M153 195L154 196L153 195z"/>
<path style="fill:#125f70; stroke:none;" d="M152 196L153 197L152 196z"/>
<path style="fill:#1f9eaf; stroke:none;" d="M150 197L151 198L150 197z"/>
<path style="fill:#125f70; stroke:none;" d="M149 198L150 199L149 198z"/>
<path style="fill:#1f9eaf; stroke:none;" d="M20 199L20 251L21 251L21 216L20 199M147 199L148 200L147 199z"/>
<path style="fill:#125f70; stroke:none;" d="M148 199L149 200L148 199z"/>
<path style="fill:#1f9eaf; stroke:none;" d="M145 200L146 201L145 200z"/>
<path style="fill:#125f70; stroke:none;" d="M146 200L147 201L146 200z"/>
<path style="fill:#1f9eaf; stroke:none;" d="M143 201L144 202L143 201z"/>
<path style="fill:#125f70; stroke:none;" d="M144 201L145 202L144 201M142 202L143 203L142 202M143 203L144 204L143 203z"/>
<path style="fill:#1f9eaf; stroke:none;" d="M144 204L145 205L144 204M145 205L146 206L145 205M204 205L204 206L244 206C233.488 201.589 215.434 205 204 205M146 206L147 207L146 206z"/>
<path style="fill:#125f70; stroke:none;" d="M204 206L204 254L205 254C205 240.474 209.209 218.414 204 206z"/>
<path style="fill:#1f9eaf; stroke:none;" d="M111 207L111 208L123 208L111 207M147 207L148 208L147 207z"/>
<path style="fill:#125f70; stroke:none;" d="M125 208L126 209L125 208z"/>
<path style="fill:#1f9eaf; stroke:none;" d="M126 208L127 209L126 208z"/>
<path style="fill:#125f70; stroke:none;" d="M148 208L149 209L148 208z"/>
<path style="fill:#1f9eaf; stroke:none;" d="M128 209L129 210L128 209z"/>
<path style="fill:#125f70; stroke:none;" d="M149 209L150 210L149 209M129 210L130 211L129 210z"/>
<path style="fill:#1f9eaf; stroke:none;" d="M131 211L132 212L131 211M150 211L151 212L150 211M132 212L133 213L132 212z"/>
<path style="fill:#125f70; stroke:none;" d="M151 212L152 213L151 212z"/>
<path style="fill:#1f9eaf; stroke:none;" d="M133 213L134 214L133 213M134 214L135 215L134 214M152 214L153 215L152 214z"/>
<path style="fill:#125f70; stroke:none;" d="M153 215L154 216L153 215M135 216L136 217L135 216M136 217L137 218L136 217z"/>
<path style="fill:#1f9eaf; stroke:none;" d="M154 217L155 218L154 217z"/>
<path style="fill:#125f70; stroke:none;" d="M332 217L332 274L333 274L333 235L332 217M137 218L138 219L137 218M155 218L156 219L155 218M138 219L139 220L138 219M139 220L140 221L139 220M156 220L157 221L156 220z"/>
<path style="fill:#1f9eaf; stroke:none;" d="M140 221L141 222L140 221M157 222L158 223L157 222M141 223L142 224L141 223z"/>
<path style="fill:#125f70; stroke:none;" d="M158 223L159 224L158 223M142 225L143 226L142 225M159 225L160 226L159 225M143 227L144 228L143 227z"/>
<path style="fill:#1f9eaf; stroke:none;" d="M160 227L161 228L160 227M144 228L145 229L144 228z"/>
<path style="fill:#125f70; stroke:none;" d="M161 228L162 229L161 228M144 229L145 230L144 229z"/>
<path style="fill:#1f9eaf; stroke:none;" d="M145 230L146 231L145 230z"/>
<path style="fill:#125f70; stroke:none;" d="M162 230L163 231L162 230M146 232L147 233L146 232z"/>
<path style="fill:#1f9eaf; stroke:none;" d="M163 232L164 233L163 232z"/>
<path style="fill:#125f70; stroke:none;" d="M164 233L165 234L164 233M147 234L148 235L147 234z"/>
<path style="fill:#1f9eaf; stroke:none;" d="M148 235L149 236L148 235z"/>
<path style="fill:#125f70; stroke:none;" d="M165 235L166 236L165 235M148 236L149 237L148 236z"/>
<path style="fill:#1f9eaf; stroke:none;" d="M149 237L150 238L149 237M166 237L167 238L166 237z"/>
<path style="fill:#125f70; stroke:none;" d="M149 238L150 239L149 238M167 238L168 239L167 238z"/>
<path style="fill:#1f9eaf; stroke:none;" d="M150 239L151 240L150 239z"/>
<path style="fill:#125f70; stroke:none;" d="M168 240L169 241L168 240M151 241L152 242L151 241z"/>
<path style="fill:#1f9eaf; stroke:none;" d="M169 242L170 243L169 242z"/>
<path style="fill:#125f70; stroke:none;" d="M152 243L153 244L152 243M170 243L171 244L170 243z"/>
<path style="fill:#1f9eaf; stroke:none;" d="M153 244L154 245L153 244z"/>
<path style="fill:#125f70; stroke:none;" d="M153 245L154 246L153 245M171 245L172 246L171 245z"/>
<path style="fill:#1f9eaf; stroke:none;" d="M154 246L155 247L154 246M172 247L173 248L172 247M155 248L156 249L155 248M173 249L174 250L173 249z"/>
<path style="fill:#125f70; stroke:none;" d="M156 250L157 251L156 250M174 250L175 251L174 250M20 251L20 279L21 279L20 251M157 252L158 253L157 252z"/>
<path style="fill:#1f9eaf; stroke:none;" d="M175 252L176 253L175 252M158 253L159 254L158 253z"/>
<path style="fill:#030d1b; stroke:none;" d="M332 274L330.972 293.671L319 301.719L291 317.719L171 386L171 387L333 387L333 308L332 274z"/>
<path style="fill:#125f70; stroke:none;" d="M314 277L313 285L314 285L314 277z"/>
<path style="fill:#1f9eaf; stroke:none;" d="M20 279L21 280L20 279M21 280L22 281L21 280z"/>
<path style="fill:#125f70; stroke:none;" d="M22 280L23 281L22 280z"/>
<path style="fill:#1f9eaf; stroke:none;" d="M23 281L24 282L23 281z"/>
<path style="fill:#125f70; stroke:none;" d="M25 282L26 283L25 282z"/>
<path style="fill:#1f9eaf; stroke:none;" d="M26 283L27 284L26 283z"/>
<path style="fill:#125f70; stroke:none;" d="M27 283L28 284L27 283z"/>
<path style="fill:#1f9eaf; stroke:none;" d="M28 284L29 285L28 284M314 284L315 285L314 284z"/>
<path style="fill:#125f70; stroke:none;" d="M30 285L31 286L30 285z"/>
<path style="fill:#1f9eaf; stroke:none;" d="M312 285L313 286L312 285z"/>
<path style="fill:#125f70; stroke:none;" d="M32 286L33 287L32 286M310 286L311 287L310 286z"/>
<path style="fill:#1f9eaf; stroke:none;" d="M33 287L34 288L33 287z"/>
<path style="fill:#125f70; stroke:none;" d="M34 287L35 288L34 287M308 287L309 288L308 287z"/>
<path style="fill:#1f9eaf; stroke:none;" d="M35 288L36 289L35 288z"/>
<path style="fill:#125f70; stroke:none;" d="M306 288L307 289L306 288z"/>
<path style="fill:#1f9eaf; stroke:none;" d="M307 288L308 289L307 288z"/>
<path style="fill:#125f70; stroke:none;" d="M37 289L38 290L37 289z"/>
<path style="fill:#1f9eaf; stroke:none;" d="M305 289L306 290L305 289M38 290L39 291L38 290z"/>
<path style="fill:#125f70; stroke:none;" d="M39 290L40 291L39 290M303 290L304 291L303 290z"/>
<path style="fill:#030d1b; stroke:none;" d="M5 291L5 387L169 387L169 386L121 358.424L5 291z"/>
<path style="fill:#1f9eaf; stroke:none;" d="M6 291L7 292L6 291M40 291L41 292L40 291z"/>
<path style="fill:#125f70; stroke:none;" d="M301 291L302 292L301 291M7 292L8 293L7 292z"/>
<path style="fill:#1f9eaf; stroke:none;" d="M8 292L9 293L8 292z"/>
<path style="fill:#125f70; stroke:none;" d="M42 292L43 293L42 292M299 292L300 293L299 292z"/>
<path style="fill:#1f9eaf; stroke:none;" d="M300 292L301 293L300 292z"/>
<path style="fill:#125f70; stroke:none;" d="M9 293L10 294L9 293M44 293L45 294L44 293z"/>
<path style="fill:#1f9eaf; stroke:none;" d="M298 293L299 294L298 293z"/>
<path style="fill:#125f70; stroke:none;" d="M11 294L12 295L11 294z"/>
<path style="fill:#1f9eaf; stroke:none;" d="M45 294L46 295L45 294z"/>
<path style="fill:#125f70; stroke:none;" d="M46 294L47 295L46 294M296 294L297 295L296 294z"/>
<path style="fill:#1f9eaf; stroke:none;" d="M331 294L332 295L331 294M13 295L14 296L13 295M47 295L48 296L47 295z"/>
<path style="fill:#125f70; stroke:none;" d="M294 295L295 296L294 295z"/>
<path style="fill:#1f9eaf; stroke:none;" d="M329 295L330 296L329 295z"/>
<path style="fill:#125f70; stroke:none;" d="M14 296L15 297L14 296z"/>
<path style="fill:#1f9eaf; stroke:none;" d="M15 296L16 297L15 296z"/>
<path style="fill:#125f70; stroke:none;" d="M49 296L50 297L49 296M292 296L293 297L292 296z"/>
<path style="fill:#1f9eaf; stroke:none;" d="M293 296L294 297L293 296M327 296L328 297L327 296z"/>
<path style="fill:#125f70; stroke:none;" d="M328 296L329 297L328 296M16 297L17 298L16 297z"/>
<path style="fill:#1f9eaf; stroke:none;" d="M50 297L51 298L50 297z"/>
<path style="fill:#125f70; stroke:none;" d="M51 297L52 298L51 297z"/>
<path style="fill:#1f9eaf; stroke:none;" d="M291 297L292 298L291 297z"/>
<path style="fill:#125f70; stroke:none;" d="M326 297L327 298L326 297z"/>
<path style="fill:#1f9eaf; stroke:none;" d="M18 298L19 299L18 298M52 298L53 299L52 298z"/>
<path style="fill:#125f70; stroke:none;" d="M289 298L290 299L289 298M324 298L325 299L324 298M19 299L20 300L19 299z"/>
<path style="fill:#1f9eaf; stroke:none;" d="M20 299L21 300L20 299z"/>
<path style="fill:#125f70; stroke:none;" d="M54 299L55 300L54 299M287 299L288 300L287 299z"/>
<path style="fill:#1f9eaf; stroke:none;" d="M322 299L323 300L322 299z"/>
<path style="fill:#125f70; stroke:none;" d="M21 300L22 301L21 300M56 300L57 301L56 300M285 300L286 301L285 300z"/>
<path style="fill:#1f9eaf; stroke:none;" d="M286 300L287 301L286 300M320 300L321 301L320 300z"/>
<path style="fill:#125f70; stroke:none;" d="M321 300L322 301L321 300M23 301L24 302L23 301z"/>
<path style="fill:#1f9eaf; stroke:none;" d="M57 301L58 302L57 301z"/>
<path style="fill:#125f70; stroke:none;" d="M58 301L59 302L58 301z"/>
<path style="fill:#1f9eaf; stroke:none;" d="M284 301L285 302L284 301z"/>
<path style="fill:#125f70; stroke:none;" d="M319 301L320 302L319 301z"/>
<path style="fill:#1f9eaf; stroke:none;" d="M25 302L26 303L25 302M59 302L60 303L59 302z"/>
<path style="fill:#125f70; stroke:none;" d="M282 302L283 303L282 302M317 302L318 303L317 302M26 303L27 304L26 303z"/>
<path style="fill:#1f9eaf; stroke:none;" d="M27 303L28 304L27 303z"/>
<path style="fill:#125f70; stroke:none;" d="M61 303L62 304L61 303M280 303L281 304L280 303z"/>
<path style="fill:#1f9eaf; stroke:none;" d="M315 303L316 304L315 303z"/>
<path style="fill:#125f70; stroke:none;" d="M28 304L29 305L28 304z"/>
<path style="fill:#1f9eaf; stroke:none;" d="M62 304L63 305L62 304z"/>
<path style="fill:#125f70; stroke:none;" d="M63 304L64 305L63 304M278 304L279 305L278 304z"/>
<path style="fill:#1f9eaf; stroke:none;" d="M279 304L280 305L279 304M313 304L314 305L313 304z"/>
<path style="fill:#125f70; stroke:none;" d="M314 304L315 305L314 304z"/>
<path style="fill:#1f9eaf; stroke:none;" d="M30 305L31 306L30 305M64 305L65 306L64 305M277 305L278 306L277 305z"/>
<path style="fill:#125f70; stroke:none;" d="M312 305L313 306L312 305M31 306L32 307L31 306z"/>
<path style="fill:#1f9eaf; stroke:none;" d="M32 306L33 307L32 306z"/>
<path style="fill:#125f70; stroke:none;" d="M66 306L67 307L66 306M275 306L276 307L275 306M310 306L311 307L310 306M33 307L34 308L33 307M68 307L69 308L68 307M273 307L274 308L273 307z"/>
<path style="fill:#1f9eaf; stroke:none;" d="M308 307L309 308L308 307z"/>
<path style="fill:#125f70; stroke:none;" d="M35 308L36 309L35 308z"/>
<path style="fill:#1f9eaf; stroke:none;" d="M69 308L70 309L69 308z"/>
<path style="fill:#125f70; stroke:none;" d="M70 308L71 309L70 308M271 308L272 309L271 308z"/>
<path style="fill:#1f9eaf; stroke:none;" d="M272 308L273 309L272 308M306 308L307 309L306 308z"/>
<path style="fill:#125f70; stroke:none;" d="M307 308L308 309L307 308z"/>
<path style="fill:#1f9eaf; stroke:none;" d="M37 309L38 310L37 309M71 309L72 310L71 309M270 309L271 310L270 309z"/>
<path style="fill:#125f70; stroke:none;" d="M305 309L306 310L305 309M38 310L39 311L38 310z"/>
<path style="fill:#1f9eaf; stroke:none;" d="M39 310L40 311L39 310z"/>
<path style="fill:#125f70; stroke:none;" d="M73 310L74 311L73 310M268 310L269 311L268 310M303 310L304 311L303 310M40 311L41 312L40 311z"/>
<path style="fill:#1f9eaf; stroke:none;" d="M74 311L75 312L74 311z"/>
<path style="fill:#125f70; stroke:none;" d="M75 311L76 312L75 311M266 311L267 312L266 311z"/>
<path style="fill:#1f9eaf; stroke:none;" d="M301 311L302 312L301 311M42 312L43 313L42 312M76 312L77 313L76 312z"/>
<path style="fill:#125f70; stroke:none;" d="M264 312L265 313L264 312z"/>
<path style="fill:#1f9eaf; stroke:none;" d="M265 312L266 313L265 312M299 312L300 313L299 312z"/>
<path style="fill:#125f70; stroke:none;" d="M300 312L301 313L300 312M43 313L44 314L43 313z"/>
<path style="fill:#1f9eaf; stroke:none;" d="M44 313L45 314L44 313z"/>
<path style="fill:#125f70; stroke:none;" d="M78 313L79 314L78 313z"/>
<path style="fill:#1f9eaf; stroke:none;" d="M263 313L264 314L263 313z"/>
<path style="fill:#125f70; stroke:none;" d="M298 313L299 314L298 313M45 314L46 315L45 314M80 314L81 315L80 314M261 314L262 315L261 314M296 314L297 315L296 314M47 315L48 316L47 315z"/>
<path style="fill:#1f9eaf; stroke:none;" d="M81 315L82 316L81 315z"/>
<path style="fill:#125f70; stroke:none;" d="M82 315L83 316L82 315M259 315L260 316L259 315z"/>
<path style="fill:#1f9eaf; stroke:none;" d="M294 315L295 316L294 315M49 316L50 317L49 316M83 316L84 317L83 316z"/>
<path style="fill:#125f70; stroke:none;" d="M257 316L258 317L257 316z"/>
<path style="fill:#1f9eaf; stroke:none;" d="M258 316L259 317L258 316M292 316L293 317L292 316z"/>
<path style="fill:#125f70; stroke:none;" d="M293 316L294 317L293 316M50 317L51 318L50 317z"/>
<path style="fill:#1f9eaf; stroke:none;" d="M51 317L52 318L51 317z"/>
<path style="fill:#125f70; stroke:none;" d="M85 317L86 318L85 317z"/>
<path style="fill:#1f9eaf; stroke:none;" d="M256 317L257 318L256 317z"/>
<path style="fill:#125f70; stroke:none;" d="M291 317L292 318L291 317M52 318L53 319L52 318z"/>
<path style="fill:#1f9eaf; stroke:none;" d="M86 318L87 319L86 318z"/>
<path style="fill:#125f70; stroke:none;" d="M87 318L88 319L87 318z"/>
<path style="fill:#1f9eaf; stroke:none;" d="M254 318L255 319L254 318z"/>
<path style="fill:#125f70; stroke:none;" d="M289 318L290 319L289 318z"/>
<path style="fill:#1f9eaf; stroke:none;" d="M54 319L55 320L54 319M88 319L89 320L88 319z"/>
<path style="fill:#125f70; stroke:none;" d="M252 319L253 320L252 319z"/>
<path style="fill:#1f9eaf; stroke:none;" d="M287 319L288 320L287 319z"/>
<path style="fill:#125f70; stroke:none;" d="M55 320L56 321L55 320z"/>
<path style="fill:#1f9eaf; stroke:none;" d="M56 320L57 321L56 320z"/>
<path style="fill:#125f70; stroke:none;" d="M90 320L91 321L90 320M250 320L251 321L250 320z"/>
<path style="fill:#1f9eaf; stroke:none;" d="M251 320L252 321L251 320M285 320L286 321L285 320z"/>
<path style="fill:#125f70; stroke:none;" d="M286 320L287 321L286 320M57 321L58 322L57 321M92 321L93 322L92 321z"/>
<path style="fill:#1f9eaf; stroke:none;" d="M249 321L250 322L249 321z"/>
<path style="fill:#125f70; stroke:none;" d="M284 321L285 322L284 321M59 322L60 323L59 322z"/>
<path style="fill:#1f9eaf; stroke:none;" d="M93 322L94 323L93 322z"/>
<path style="fill:#125f70; stroke:none;" d="M94 322L95 323L94 322z"/>
<path style="fill:#1f9eaf; stroke:none;" d="M247 322L248 323L247 322z"/>
<path style="fill:#125f70; stroke:none;" d="M282 322L283 323L282 322z"/>
<path style="fill:#1f9eaf; stroke:none;" d="M61 323L62 324L61 323M95 323L96 324L95 323z"/>
<path style="fill:#125f70; stroke:none;" d="M245 323L246 324L245 323z"/>
<path style="fill:#1f9eaf; stroke:none;" d="M280 323L281 324L280 323z"/>
<path style="fill:#125f70; stroke:none;" d="M62 324L63 325L62 324z"/>
<path style="fill:#1f9eaf; stroke:none;" d="M63 324L64 325L63 324z"/>
<path style="fill:#125f70; stroke:none;" d="M97 324L98 325L97 324M243 324L244 325L243 324z"/>
<path style="fill:#1f9eaf; stroke:none;" d="M244 324L245 325L244 324M278 324L279 325L278 324z"/>
<path style="fill:#125f70; stroke:none;" d="M279 324L280 325L279 324M64 325L65 326L64 325z"/>
<path style="fill:#1f9eaf; stroke:none;" d="M98 325L99 326L98 325z"/>
<path style="fill:#125f70; stroke:none;" d="M99 325L100 326L99 325z"/>
<path style="fill:#1f9eaf; stroke:none;" d="M242 325L243 326L242 325z"/>
<path style="fill:#125f70; stroke:none;" d="M277 325L278 326L277 325z"/>
<path style="fill:#1f9eaf; stroke:none;" d="M66 326L67 327L66 326M100 326L101 327L100 326M240 326L241 327L240 326z"/>
<path style="fill:#125f70; stroke:none;" d="M275 326L276 327L275 326M67 327L68 328L67 327z"/>
<path style="fill:#1f9eaf; stroke:none;" d="M68 327L69 328L68 327z"/>
<path style="fill:#125f70; stroke:none;" d="M102 327L103 328L102 327M238 327L239 328L238 327z"/>
<path style="fill:#1f9eaf; stroke:none;" d="M273 327L274 328L273 327z"/>
<path style="fill:#125f70; stroke:none;" d="M69 328L70 329L69 328M104 328L105 329L104 328M236 328L237 329L236 328z"/>
<path style="fill:#1f9eaf; stroke:none;" d="M237 328L238 329L237 328M271 328L272 329L271 328z"/>
<path style="fill:#125f70; stroke:none;" d="M272 328L273 329L272 328M71 329L72 330L71 329z"/>
<path style="fill:#1f9eaf; stroke:none;" d="M105 329L106 330L105 329z"/>
<path style="fill:#125f70; stroke:none;" d="M106 329L107 330L106 329z"/>
<path style="fill:#1f9eaf; stroke:none;" d="M235 329L236 330L235 329z"/>
<path style="fill:#125f70; stroke:none;" d="M270 329L271 330L270 329z"/>
<path style="fill:#1f9eaf; stroke:none;" d="M73 330L74 331L73 330M107 330L108 331L107 330M233 330L234 331L233 330z"/>
<path style="fill:#125f70; stroke:none;" d="M268 330L269 331L268 330M74 331L75 332L74 331z"/>
<path style="fill:#1f9eaf; stroke:none;" d="M75 331L76 332L75 331z"/>
<path style="fill:#125f70; stroke:none;" d="M109 331L110 332L109 331M231 331L232 332L231 331z"/>
<path style="fill:#1f9eaf; stroke:none;" d="M266 331L267 332L266 331z"/>
<path style="fill:#125f70; stroke:none;" d="M76 332L77 333L76 332z"/>
<path style="fill:#1f9eaf; stroke:none;" d="M110 332L111 333L110 332z"/>
<path style="fill:#125f70; stroke:none;" d="M111 332L112 333L111 332M229 332L230 333L229 332z"/>
<path style="fill:#1f9eaf; stroke:none;" d="M230 332L231 333L230 332M264 332L265 333L264 332z"/>
<path style="fill:#125f70; stroke:none;" d="M265 332L266 333L265 332z"/>
<path style="fill:#1f9eaf; stroke:none;" d="M78 333L79 334L78 333M112 333L113 334L112 333M228 333L229 334L228 333M262 333L263 334L262 333z"/>
<path style="fill:#125f70; stroke:none;" d="M263 333L264 334L263 333M79 334L80 335L79 334z"/>
<path style="fill:#1f9eaf; stroke:none;" d="M80 334L81 335L80 334z"/>
<path style="fill:#125f70; stroke:none;" d="M114 334L115 335L114 334z"/>
<path style="fill:#1f9eaf; stroke:none;" d="M226 334L227 335L226 334z"/>
<path style="fill:#125f70; stroke:none;" d="M261 334L262 335L261 334M81 335L82 336L81 335M116 335L117 336L116 335M224 335L225 336L224 335z"/>
<path style="fill:#1f9eaf; stroke:none;" d="M259 335L260 336L259 335z"/>
<path style="fill:#125f70; stroke:none;" d="M83 336L84 337L83 336z"/>
<path style="fill:#1f9eaf; stroke:none;" d="M117 336L118 337L117 336z"/>
<path style="fill:#125f70; stroke:none;" d="M118 336L119 337L118 336M222 336L223 337L222 336z"/>
<path style="fill:#1f9eaf; stroke:none;" d="M223 336L224 337L223 336M257 336L258 337L257 336z"/>
<path style="fill:#125f70; stroke:none;" d="M258 336L259 337L258 336z"/>
<path style="fill:#1f9eaf; stroke:none;" d="M85 337L86 338L85 337M119 337L120 338L119 337z"/>
<path style="fill:#125f70; stroke:none;" d="M220 337L221 338L220 337z"/>
<path style="fill:#1f9eaf; stroke:none;" d="M221 337L222 338L221 337M255 337L256 338L255 337z"/>
<path style="fill:#125f70; stroke:none;" d="M256 337L257 338L256 337M86 338L87 339L86 338z"/>
<path style="fill:#1f9eaf; stroke:none;" d="M87 338L88 339L87 338z"/>
<path style="fill:#125f70; stroke:none;" d="M121 338L122 339L121 338z"/>
<path style="fill:#1f9eaf; stroke:none;" d="M219 338L220 339L219 338z"/>
<path style="fill:#125f70; stroke:none;" d="M254 338L255 339L254 338M88 339L89 340L88 339z"/>
<path style="fill:#1f9eaf; stroke:none;" d="M122 339L123 340L122 339z"/>
<path style="fill:#125f70; stroke:none;" d="M123 339L124 340L123 339M217 339L218 340L217 339z"/>
<path style="fill:#1f9eaf; stroke:none;" d="M252 339L253 340L252 339M90 340L91 341L90 340M124 340L125 341L124 340z"/>
<path style="fill:#125f70; stroke:none;" d="M215 340L216 341L215 340z"/>
<path style="fill:#1f9eaf; stroke:none;" d="M216 340L217 341L216 340M250 340L251 341L250 340z"/>
<path style="fill:#125f70; stroke:none;" d="M251 340L252 341L251 340M91 341L92 342L91 341z"/>
<path style="fill:#1f9eaf; stroke:none;" d="M92 341L93 342L92 341z"/>
<path style="fill:#125f70; stroke:none;" d="M126 341L127 342L126 341M213 341L214 342L213 341z"/>
<path style="fill:#1f9eaf; stroke:none;" d="M214 341L215 342L214 341M248 341L249 342L248 341z"/>
<path style="fill:#125f70; stroke:none;" d="M249 341L250 342L249 341M93 342L94 343L93 342M128 342L129 343L128 342z"/>
<path style="fill:#1f9eaf; stroke:none;" d="M212 342L213 343L212 342z"/>
<path style="fill:#125f70; stroke:none;" d="M247 342L248 343L247 342M95 343L96 344L95 343z"/>
<path style="fill:#1f9eaf; stroke:none;" d="M129 343L130 344L129 343z"/>
<path style="fill:#125f70; stroke:none;" d="M130 343L131 344L130 343M210 343L211 344L210 343z"/>
<path style="fill:#1f9eaf; stroke:none;" d="M245 343L246 344L245 343M97 344L98 345L97 344M131 344L132 345L131 344z"/>
<path style="fill:#125f70; stroke:none;" d="M208 344L209 345L208 344z"/>
<path style="fill:#1f9eaf; stroke:none;" d="M209 344L210 345L209 344M243 344L244 345L243 344z"/>
<path style="fill:#125f70; stroke:none;" d="M244 344L245 345L244 344M98 345L99 346L98 345z"/>
<path style="fill:#1f9eaf; stroke:none;" d="M99 345L100 346L99 345z"/>
<path style="fill:#125f70; stroke:none;" d="M133 345L134 346L133 345M206 345L207 346L206 345z"/>
<path style="fill:#1f9eaf; stroke:none;" d="M207 345L208 346L207 345M241 345L242 346L241 345z"/>
<path style="fill:#125f70; stroke:none;" d="M242 345L243 346L242 345M100 346L101 347L100 346z"/>
<path style="fill:#1f9eaf; stroke:none;" d="M134 346L135 347L134 346z"/>
<path style="fill:#125f70; stroke:none;" d="M135 346L136 347L135 346z"/>
<path style="fill:#1f9eaf; stroke:none;" d="M205 346L206 347L205 346z"/>
<path style="fill:#125f70; stroke:none;" d="M240 346L241 347L240 346z"/>
<path style="fill:#1f9eaf; stroke:none;" d="M102 347L103 348L102 347M136 347L137 348L136 347z"/>
<path style="fill:#125f70; stroke:none;" d="M203 347L204 348L203 347z"/>
<path style="fill:#1f9eaf; stroke:none;" d="M238 347L239 348L238 347z"/>
<path style="fill:#125f70; stroke:none;" d="M103 348L104 349L103 348z"/>
<path style="fill:#1f9eaf; stroke:none;" d="M104 348L105 349L104 348z"/>
<path style="fill:#125f70; stroke:none;" d="M138 348L139 349L138 348M201 348L202 349L201 348z"/>
<path style="fill:#1f9eaf; stroke:none;" d="M202 348L203 349L202 348M236 348L237 349L236 348z"/>
<path style="fill:#125f70; stroke:none;" d="M105 349L106 350L105 349M140 349L141 350L140 349M199 349L200 350L199 349z"/>
<path style="fill:#1f9eaf; stroke:none;" d="M200 349L201 350L200 349M234 349L235 350L234 349z"/>
<path style="fill:#125f70; stroke:none;" d="M235 349L236 350L235 349M107 350L108 351L107 350z"/>
<path style="fill:#1f9eaf; stroke:none;" d="M141 350L142 351L141 350z"/>
<path style="fill:#125f70; stroke:none;" d="M142 350L143 351L142 350z"/>
<path style="fill:#1f9eaf; stroke:none;" d="M198 350L199 351L198 350z"/>
<path style="fill:#125f70; stroke:none;" d="M233 350L234 351L233 350z"/>
<path style="fill:#1f9eaf; stroke:none;" d="M109 351L110 352L109 351M143 351L144 352L143 351z"/>
<path style="fill:#125f70; stroke:none;" d="M196 351L197 352L196 351z"/>
<path style="fill:#1f9eaf; stroke:none;" d="M231 351L232 352L231 351z"/>
<path style="fill:#125f70; stroke:none;" d="M110 352L111 353L110 352z"/>
<path style="fill:#1f9eaf; stroke:none;" d="M111 352L112 353L111 352z"/>
<path style="fill:#125f70; stroke:none;" d="M145 352L146 353L145 352M194 352L195 353L194 352z"/>
<path style="fill:#1f9eaf; stroke:none;" d="M229 352L230 353L229 352z"/>
<path style="fill:#125f70; stroke:none;" d="M112 353L113 354L112 353z"/>
<path style="fill:#1f9eaf; stroke:none;" d="M146 353L147 354L146 353z"/>
<path style="fill:#125f70; stroke:none;" d="M147 353L148 354L147 353M192 353L193 354L192 353z"/>
<path style="fill:#1f9eaf; stroke:none;" d="M193 353L194 354L193 353M227 353L228 354L227 353z"/>
<path style="fill:#125f70; stroke:none;" d="M228 353L229 354L228 353z"/>
<path style="fill:#1f9eaf; stroke:none;" d="M114 354L115 355L114 354M148 354L149 355L148 354M191 354L192 355L191 354z"/>
<path style="fill:#125f70; stroke:none;" d="M226 354L227 355L226 354M115 355L116 356L115 355z"/>
<path style="fill:#1f9eaf; stroke:none;" d="M116 355L117 356L116 355z"/>
<path style="fill:#125f70; stroke:none;" d="M150 355L151 356L150 355M189 355L190 356L189 355z"/>
<path style="fill:#1f9eaf; stroke:none;" d="M224 355L225 356L224 355z"/>
<path style="fill:#125f70; stroke:none;" d="M117 356L118 357L117 356M152 356L153 357L152 356M187 356L188 357L187 356z"/>
<path style="fill:#1f9eaf; stroke:none;" d="M222 356L223 357L222 356z"/>
<path style="fill:#125f70; stroke:none;" d="M119 357L120 358L119 357z"/>
<path style="fill:#1f9eaf; stroke:none;" d="M153 357L154 358L153 357z"/>
<path style="fill:#125f70; stroke:none;" d="M154 357L155 358L154 357M185 357L186 358L185 357z"/>
<path style="fill:#1f9eaf; stroke:none;" d="M186 357L187 358L186 357M220 357L221 358L220 357z"/>
<path style="fill:#125f70; stroke:none;" d="M221 357L222 358L221 357z"/>
<path style="fill:#1f9eaf; stroke:none;" d="M121 358L122 359L121 358M155 358L156 359L155 358M184 358L185 359L184 358z"/>
<path style="fill:#125f70; stroke:none;" d="M219 358L220 359L219 358M122 359L123 360L122 359z"/>
<path style="fill:#1f9eaf; stroke:none;" d="M123 359L124 360L123 359z"/>
<path style="fill:#125f70; stroke:none;" d="M157 359L158 360L157 359M182 359L183 360L182 359z"/>
<path style="fill:#1f9eaf; stroke:none;" d="M217 359L218 360L217 359z"/>
<path style="fill:#125f70; stroke:none;" d="M124 360L125 361L124 360z"/>
<path style="fill:#1f9eaf; stroke:none;" d="M158 360L159 361L158 360z"/>
<path style="fill:#125f70; stroke:none;" d="M159 360L160 361L159 360M180 360L181 361L180 360z"/>
<path style="fill:#1f9eaf; stroke:none;" d="M215 360L216 361L215 360M126 361L127 362L126 361M160 361L161 362L160 361z"/>
<path style="fill:#125f70; stroke:none;" d="M178 361L179 362L178 361z"/>
<path style="fill:#1f9eaf; stroke:none;" d="M179 361L180 362L179 361M213 361L214 362L213 361z"/>
<path style="fill:#125f70; stroke:none;" d="M214 361L215 362L214 361M127 362L128 363L127 362z"/>
<path style="fill:#1f9eaf; stroke:none;" d="M128 362L129 363L128 362z"/>
<path style="fill:#125f70; stroke:none;" d="M162 362L163 363L162 362z"/>
<path style="fill:#1f9eaf; stroke:none;" d="M177 362L178 363L177 362z"/>
<path style="fill:#125f70; stroke:none;" d="M212 362L213 363L212 362M129 363L130 364L129 363M164 363L165 364L164 363M175 363L176 364L175 363z"/>
<path style="fill:#1f9eaf; stroke:none;" d="M210 363L211 364L210 363z"/>
<path style="fill:#125f70; stroke:none;" d="M131 364L132 365L131 364z"/>
<path style="fill:#1f9eaf; stroke:none;" d="M165 364L166 365L165 364z"/>
<path style="fill:#125f70; stroke:none;" d="M166 364L167 365L166 364M173 364L174 365L173 364z"/>
<path style="fill:#1f9eaf; stroke:none;" d="M208 364L209 365L208 364M133 365L134 366L133 365M167 365L168 366L167 365z"/>
<path style="fill:#125f70; stroke:none;" d="M171 365L172 366L171 365z"/>
<path style="fill:#1f9eaf; stroke:none;" d="M172 365L173 366L172 365M206 365L207 366L206 365z"/>
<path style="fill:#125f70; stroke:none;" d="M207 365L208 366L207 365M134 366L135 367L134 366z"/>
<path style="fill:#1f9eaf; stroke:none;" d="M135 366L136 367L135 366z"/>
<path style="fill:#125f70; stroke:none;" d="M169 366L170 367L169 366z"/>
<path style="fill:#1f9eaf; stroke:none;" d="M170 366L171 367L170 366z"/>
<path style="fill:#125f70; stroke:none;" d="M205 366L206 367L205 366M136 367L137 368L136 367M203 367L204 368L203 367z"/>
<path style="fill:#1f9eaf; stroke:none;" d="M138 368L139 369L138 368M201 368L202 369L201 368z"/>
<path style="fill:#125f70; stroke:none;" d="M139 369L140 370L139 369z"/>
<path style="fill:#1f9eaf; stroke:none;" d="M140 369L141 370L140 369M199 369L200 370L199 369z"/>
<path style="fill:#125f70; stroke:none;" d="M200 369L201 370L200 369M141 370L142 371L141 370M198 370L199 371L198 370z"/>
<path style="fill:#1f9eaf; stroke:none;" d="M143 371L144 372L143 371z"/>
<path style="fill:#125f70; stroke:none;" d="M196 371L197 372L196 371z"/>
<path style="fill:#1f9eaf; stroke:none;" d="M145 372L146 373L145 372M194 372L195 373L194 372z"/>
<path style="fill:#125f70; stroke:none;" d="M146 373L147 374L146 373z"/>
<path style="fill:#1f9eaf; stroke:none;" d="M147 373L148 374L147 373M192 373L193 374L192 373z"/>
<path style="fill:#125f70; stroke:none;" d="M193 373L194 374L193 373M148 374L149 375L148 374M191 374L192 375L191 374z"/>
<path style="fill:#1f9eaf; stroke:none;" d="M150 375L151 376L150 375z"/>
<path style="fill:#125f70; stroke:none;" d="M189 375L190 376L189 375M151 376L152 377L151 376z"/>
<path style="fill:#1f9eaf; stroke:none;" d="M152 376L153 377L152 376M187 376L188 377L187 376z"/>
<path style="fill:#125f70; stroke:none;" d="M153 377L154 378L153 377z"/>
<path style="fill:#1f9eaf; stroke:none;" d="M185 377L186 378L185 377z"/>
<path style="fill:#125f70; stroke:none;" d="M186 377L187 378L186 377z"/>
<path style="fill:#1f9eaf; stroke:none;" d="M155 378L156 379L155 378z"/>
<path style="fill:#125f70; stroke:none;" d="M184 378L185 379L184 378z"/>
<path style="fill:#1f9eaf; stroke:none;" d="M157 379L158 380L157 379z"/>
<path style="fill:#125f70; stroke:none;" d="M182 379L183 380L182 379M158 380L159 381L158 380z"/>
<path style="fill:#1f9eaf; stroke:none;" d="M159 380L160 381L159 380M180 380L181 381L180 380z"/>
<path style="fill:#125f70; stroke:none;" d="M160 381L161 382L160 381z"/>
<path style="fill:#1f9eaf; stroke:none;" d="M178 381L179 382L178 381z"/>
<path style="fill:#125f70; stroke:none;" d="M179 381L180 382L179 381z"/>
<path style="fill:#1f9eaf; stroke:none;" d="M162 382L163 383L162 382z"/>
<path style="fill:#125f70; stroke:none;" d="M177 382L178 383L177 382M163 383L164 384L163 383z"/>
<path style="fill:#1f9eaf; stroke:none;" d="M164 383L165 384L164 383z"/>
<path style="fill:#125f70; stroke:none;" d="M175 383L176 384L175 383M165 384L166 385L165 384z"/>
<path style="fill:#1f9eaf; stroke:none;" d="M173 384L174 385L173 384M167 385L168 386L167 385M171 385L172 386L171 385z"/>
<path style="fill:#125f70; stroke:none;" d="M172 385L173 386L172 385z"/>
<path style="fill:#1f9eaf; stroke:none;" d="M169 386L170 387L169 386z"/>
<path style="fill:#125f70; stroke:none;" d="M170 386L171 387L170 386z"/>
</svg>
